<svg width="268" height="274" viewBox="0 0 268 274" fill="none" xmlns="http://www.w3.org/2000/svg">
<g opacity="0.1" filter="url(#filter0_d)">
<path d="M5.02002 253.16H18.71C33.2634 253.16 43.87 244.157 50.53 226.15L130.08 1.55994H139.33L219.62 236.88C222.087 243.047 225.047 247.363 228.5 249.83C231.953 252.05 236.393 253.16 241.82 253.16H262.54V265H147.84V253.16H172.26C175.96 253.16 179.043 252.297 181.51 250.57C183.977 248.597 185.21 246.377 185.21 243.91C185.21 240.703 184.717 237.99 183.73 235.77L166.34 186.56H79.76L70.88 211.35C67.4267 221.217 65.7 228.37 65.7 232.81C65.7 238.237 67.0567 243.047 69.77 247.24C72.4834 251.187 77.17 253.16 83.83 253.16H106.4V265H5.02002V253.16ZM83.83 174.72H162.27L123.79 61.8699L83.83 174.72Z" fill="#1987CC"/>
<path d="M5.02002 252.66H4.52002V253.16V265V265.5H5.02002H106.4H106.9V265V253.16V252.66H106.4H83.83C77.2683 252.66 72.7731 250.721 70.186 246.962C67.5321 242.858 66.2 238.146 66.2 232.81C66.2 228.463 67.8987 221.382 71.3516 211.516C71.3517 211.516 71.3518 211.515 71.352 211.515L80.112 187.06H165.986L183.259 235.937L183.265 235.955L183.273 235.973C184.224 238.112 184.71 240.752 184.71 243.91C184.71 246.18 183.586 248.265 181.21 250.17C178.847 251.819 175.874 252.66 172.26 252.66H147.84H147.34V253.16V265V265.5H147.84H262.54H263.04V265V253.16V252.66H262.54H241.82C236.464 252.66 232.13 251.565 228.781 249.416C225.444 247.028 222.535 242.818 220.089 236.706L139.803 1.39848L139.688 1.05994H139.33H130.08H129.727L129.609 1.393L50.0611 225.976C50.0607 225.978 50.0603 225.979 50.0599 225.98C46.7491 234.93 42.4734 241.598 37.2565 246.026C32.0479 250.447 25.8741 252.66 18.71 252.66H5.02002ZM84.5375 174.22L123.781 63.393L161.571 174.22H84.5375Z" stroke="black"/>
</g>
<defs>
<filter id="filter0_d" x="0.0200195" y="0.559937" width="267.52" height="273.44" filterUnits="userSpaceOnUse" color-interpolation-filters="sRGB">
<feFlood flood-opacity="0" result="BackgroundImageFix"/>
<feColorMatrix in="SourceAlpha" type="matrix" values="0 0 0 0 0 0 0 0 0 0 0 0 0 0 0 0 0 0 127 0"/>
<feOffset dy="4"/>
<feGaussianBlur stdDeviation="2"/>
<feColorMatrix type="matrix" values="0 0 0 0 0 0 0 0 0 0 0 0 0 0 0 0 0 0 0.25 0"/>
<feBlend mode="normal" in2="BackgroundImageFix" result="effect1_dropShadow"/>
<feBlend mode="normal" in="SourceGraphic" in2="effect1_dropShadow" result="shape"/>
</filter>
</defs>
</svg>
