<svg width="223" height="274" viewBox="0 0 223 274" fill="none" xmlns="http://www.w3.org/2000/svg">
<g opacity="0.1" filter="url(#filter0_d)">
<path d="M5.93994 253.16H32.5799C39.2399 253.16 42.5699 249.83 42.5699 243.17V23.3899C42.5699 19.9366 41.7066 17.4699 39.9799 15.9899C38.4999 14.2633 36.0333 13.3999 32.5799 13.3999H5.93994V1.55994H126.56C141.113 1.55994 154.68 4.27326 167.26 9.69992C180.087 15.1266 190.323 22.6499 197.97 32.2699C205.617 41.6433 209.44 52.3733 209.44 64.4599C209.44 81.2333 203.767 95.0466 192.42 105.9C181.073 116.753 167.877 123.783 152.83 126.99V128.47C162.943 129.21 172.933 132.417 182.8 138.09C192.913 143.517 201.177 151.04 207.59 160.66C214.25 170.28 217.58 181.133 217.58 193.22C217.58 208.267 213.633 221.217 205.74 232.07C197.847 242.923 187.24 251.187 173.92 256.86C160.847 262.287 146.417 265 130.63 265H5.93994V253.16ZM125.08 121.44C145.06 121.44 158.627 116.383 165.78 106.27C173.18 95.9099 176.88 81.9733 176.88 64.4599C176.88 49.6599 172.193 37.4499 162.82 27.8299C153.447 18.2099 141.853 13.3999 128.04 13.3999H86.5999C83.1466 13.3999 80.5566 14.2633 78.8299 15.9899C77.3499 17.4699 76.6099 19.9366 76.6099 23.3899V121.44H125.08ZM126.56 253.16C141.607 253.16 153.94 248.72 163.56 239.84C173.427 230.713 178.36 215.173 178.36 193.22C178.36 171.267 173.427 155.85 163.56 146.97C153.94 137.843 141.607 133.28 126.56 133.28H76.6099V243.17C76.6099 249.83 79.9399 253.16 86.5999 253.16H126.56Z" fill="#1987CC"/>
<path d="M5.93994 252.66H5.43994V253.16V265V265.5H5.93994H130.63C146.475 265.5 160.971 262.776 174.112 257.322L174.116 257.32C187.512 251.614 198.194 243.296 206.144 232.364C214.107 221.415 218.08 208.359 218.08 193.22C218.08 181.037 214.722 170.084 208.003 160.379C201.547 150.695 193.225 143.118 183.043 137.653C173.272 132.035 163.366 128.816 153.33 128.007V127.394C168.305 124.129 181.453 117.082 192.766 106.261C204.218 95.3066 209.94 81.3593 209.94 64.4599C209.94 52.2591 206.078 41.4184 198.36 31.9566C190.655 22.2642 180.348 14.6944 167.456 9.24003C154.81 3.78526 141.176 1.05994 126.56 1.05994H5.93994H5.43994V1.55994V13.3999V13.8999H5.93994H32.5799C35.9636 13.8999 38.2557 14.7466 39.6003 16.3153L39.6254 16.3445L39.6546 16.3696C41.2233 17.7142 42.0699 20.0063 42.0699 23.3899V243.17C42.0699 246.423 41.2571 248.771 39.7189 250.309C38.1807 251.847 35.8329 252.66 32.5799 252.66H5.93994ZM165.373 105.979L165.372 105.981C158.358 115.897 144.999 120.94 125.08 120.94H77.1099V23.3899C77.1099 19.9873 77.8425 17.6844 79.1835 16.3435C80.7833 14.7437 83.2237 13.8999 86.5999 13.8999H128.04C141.723 13.8999 153.186 18.6585 162.462 28.1789C171.735 37.6956 176.38 49.7758 176.38 64.4599C176.38 81.9073 172.694 95.7307 165.373 105.979ZM163.216 147.333L163.216 147.333L163.225 147.342C172.935 156.08 177.86 171.319 177.86 193.22C177.86 215.119 172.936 230.486 163.22 239.473C153.707 248.255 141.501 252.66 126.56 252.66H86.5999C83.347 252.66 80.9992 251.847 79.461 250.309C77.9228 248.771 77.1099 246.423 77.1099 243.17V133.78H126.56C141.497 133.78 153.701 138.306 163.216 147.333Z" stroke="black"/>
</g>
<defs>
<filter id="filter0_d" x="0.939941" y="0.559937" width="221.64" height="273.44" filterUnits="userSpaceOnUse" color-interpolation-filters="sRGB">
<feFlood flood-opacity="0" result="BackgroundImageFix"/>
<feColorMatrix in="SourceAlpha" type="matrix" values="0 0 0 0 0 0 0 0 0 0 0 0 0 0 0 0 0 0 127 0"/>
<feOffset dy="4"/>
<feGaussianBlur stdDeviation="2"/>
<feColorMatrix type="matrix" values="0 0 0 0 0 0 0 0 0 0 0 0 0 0 0 0 0 0 0.25 0"/>
<feBlend mode="normal" in2="BackgroundImageFix" result="effect1_dropShadow"/>
<feBlend mode="normal" in="SourceGraphic" in2="effect1_dropShadow" result="shape"/>
</filter>
</defs>
</svg>
