<svg width="210" height="288" viewBox="0 0 210 288" fill="none" xmlns="http://www.w3.org/2000/svg">
<g opacity="0.1" filter="url(#filter0_d)">
<path d="M115.42 278.66C92.4799 278.66 72.7466 272 56.2199 258.68C39.6932 245.36 27.1132 227.97 18.4799 206.51C10.0932 184.803 5.8999 161.987 5.8999 138.06C5.8999 113.147 10.0932 90.33 18.4799 69.61C26.8666 48.89 38.8299 32.4867 54.3699 20.4C69.9099 8.06669 88.0399 1.90002 108.76 1.90002C119.613 1.90002 129.85 4.36669 139.47 9.30002C149.09 14.2333 156.983 19.5367 163.15 25.21C169.07 30.6367 173.017 33.35 174.99 33.35C176.963 33.35 178.32 32.7334 179.06 31.5C180.047 30.2667 181.033 28.2934 182.02 25.58L189.05 4.86001H198.3L199.78 119.56H189.42C183.993 96.1267 176.963 76.5167 168.33 60.73C159.697 44.6967 150.2 32.8567 139.84 25.21C129.727 17.5634 119.613 13.74 109.5 13.74C86.0666 13.74 69.4166 24.3467 59.5499 45.56C49.9299 66.7734 45.1199 97.6067 45.1199 138.06C45.1199 179.747 50.1766 211.69 60.2899 233.89C70.4032 255.843 88.7799 266.82 115.42 266.82C139.1 266.82 157.107 258.063 169.44 240.55C182.02 222.79 189.173 201.33 190.9 176.17H204.22C203.48 190.723 200.397 205.77 194.97 221.31C189.79 236.85 180.663 250.293 167.59 261.64C154.517 272.987 137.127 278.66 115.42 278.66Z" fill="#1987CC"/>
<path d="M18.0135 206.69L18.016 206.697C26.6783 228.229 39.3071 245.691 55.9061 259.069C72.5291 272.467 92.3756 279.16 115.42 279.16C137.215 279.16 154.732 273.462 167.918 262.018C181.054 250.617 190.233 237.1 195.443 221.472C200.883 205.894 203.977 190.801 204.719 176.195L204.746 175.67H204.22H190.9H190.433L190.401 176.136C188.68 201.219 181.551 222.587 169.032 240.261L169.031 240.262C156.802 257.627 138.957 266.32 115.42 266.32C102.168 266.32 91.0078 263.59 81.9138 258.158C72.8233 252.728 65.7646 244.579 60.7445 233.682C50.675 211.578 45.6199 179.718 45.6199 138.06C45.6199 97.6345 50.4285 66.886 60.0042 45.7688C64.9048 35.2334 71.4759 27.3597 79.706 22.1167C87.9368 16.8734 97.8604 14.24 109.5 14.24C119.479 14.24 129.489 18.0109 139.538 25.6089L139.543 25.6123C149.824 33.2009 159.278 44.9736 167.89 60.9671L167.891 60.9699C176.497 76.7058 183.513 96.27 188.933 119.673L189.022 120.06H189.42H199.78H200.286L200.28 119.554L198.8 4.85356L198.794 4.36001H198.3H189.05H188.692L188.576 4.69936L181.55 25.4092C181.549 25.411 181.549 25.4128 181.548 25.4146C180.568 28.1089 179.604 30.0193 178.669 31.1877L178.648 31.2139L178.631 31.2428C178.014 32.2719 176.861 32.85 174.99 32.85C174.6 32.85 174.06 32.713 173.348 32.3867C172.643 32.0637 171.806 31.5719 170.833 30.903C168.888 29.5655 166.441 27.5483 163.488 24.842C157.281 19.1309 149.347 13.8034 139.698 8.85511C130.007 3.88543 119.692 1.40002 108.76 1.40002C87.9333 1.40002 69.6931 7.60109 54.061 20.0069C38.4434 32.1544 26.4312 48.6329 18.0164 69.4224C9.60302 90.2085 5.3999 113.09 5.3999 138.06C5.3999 162.047 9.604 184.924 18.0135 206.69Z" stroke="black"/>
</g>
<defs>
<filter id="filter0_d" x="0.899902" y="0.900024" width="208.372" height="286.76" filterUnits="userSpaceOnUse" color-interpolation-filters="sRGB">
<feFlood flood-opacity="0" result="BackgroundImageFix"/>
<feColorMatrix in="SourceAlpha" type="matrix" values="0 0 0 0 0 0 0 0 0 0 0 0 0 0 0 0 0 0 127 0"/>
<feOffset dy="4"/>
<feGaussianBlur stdDeviation="2"/>
<feColorMatrix type="matrix" values="0 0 0 0 0 0 0 0 0 0 0 0 0 0 0 0 0 0 0.25 0"/>
<feBlend mode="normal" in2="BackgroundImageFix" result="effect1_dropShadow"/>
<feBlend mode="normal" in="SourceGraphic" in2="effect1_dropShadow" result="shape"/>
</filter>
</defs>
</svg>
