<svg width="259" height="274" viewBox="0 0 259 274" fill="none" xmlns="http://www.w3.org/2000/svg">
<g opacity="0.1" filter="url(#filter0_d)">
<path d="M5.93994 253.16H32.5799C39.2399 253.16 42.5699 249.83 42.5699 243.17V23.3899C42.5699 19.9366 41.7066 17.4699 39.9799 15.9899C38.4999 14.2633 36.0333 13.3999 32.5799 13.3999H5.93994V1.55994H141.36C161.833 1.55994 180.58 7.10993 197.6 18.2099C214.62 29.0633 228.063 44.3566 237.93 64.0899C248.043 83.5766 253.1 105.9 253.1 131.06C253.1 156.22 248.043 179.037 237.93 199.51C228.063 219.983 214.497 236.017 197.23 247.61C180.21 259.203 161.587 265 141.36 265H5.93994V253.16ZM139.88 253.16C157.147 253.16 171.33 247.363 182.43 235.77C193.53 223.93 201.547 208.883 206.48 190.63C211.413 172.13 213.88 152.273 213.88 131.06C213.88 98.0066 207.837 70.1333 195.75 47.4399C183.91 24.7466 165.287 13.3999 139.88 13.3999H86.5999C83.1466 13.3999 80.5566 14.2633 78.8299 15.9899C77.3499 17.4699 76.6099 19.9366 76.6099 23.3899V243.17C76.6099 249.83 79.9399 253.16 86.5999 253.16H139.88Z" fill="#1987CC"/>
<path d="M5.93994 252.66H5.43994V253.16V265V265.5H5.93994H141.36C161.688 265.5 180.408 259.672 197.509 248.025C214.856 236.378 228.478 220.274 238.379 199.729C248.529 179.181 253.6 156.288 253.6 131.06C253.6 105.833 248.53 83.4302 238.376 63.8635C228.473 44.0593 214.973 28.6957 197.871 17.7898C180.77 6.63728 161.929 1.05994 141.36 1.05994H5.93994H5.43994V1.55994V13.3999V13.8999H5.93994H32.5799C35.9636 13.8999 38.2557 14.7466 39.6003 16.3153L39.6254 16.3445L39.6546 16.3696C41.2233 17.7142 42.0699 20.0063 42.0699 23.3899V243.17C42.0699 246.423 41.2571 248.771 39.7189 250.309C38.1807 251.847 35.8329 252.66 32.5799 252.66H5.93994ZM195.307 47.6712L195.309 47.675C207.347 70.2782 213.38 98.0658 213.38 131.06C213.38 152.234 210.918 172.047 205.997 190.501C201.082 208.686 193.101 223.655 182.068 235.425C171.07 246.911 157.021 252.66 139.88 252.66H86.5999C83.347 252.66 80.9992 251.847 79.461 250.309C77.9228 248.771 77.1099 246.423 77.1099 243.17V23.3899C77.1099 19.9873 77.8425 17.6844 79.1835 16.3435C80.7833 14.7437 83.2237 13.8999 86.5999 13.8999H139.88C152.507 13.8999 163.421 16.7188 172.642 22.3369C181.864 27.9552 189.421 36.3911 195.307 47.6712Z" stroke="black"/>
</g>
<defs>
<filter id="filter0_d" x="0.939941" y="0.559937" width="257.16" height="273.44" filterUnits="userSpaceOnUse" color-interpolation-filters="sRGB">
<feFlood flood-opacity="0" result="BackgroundImageFix"/>
<feColorMatrix in="SourceAlpha" type="matrix" values="0 0 0 0 0 0 0 0 0 0 0 0 0 0 0 0 0 0 127 0"/>
<feOffset dy="4"/>
<feGaussianBlur stdDeviation="2"/>
<feColorMatrix type="matrix" values="0 0 0 0 0 0 0 0 0 0 0 0 0 0 0 0 0 0 0.25 0"/>
<feBlend mode="normal" in2="BackgroundImageFix" result="effect1_dropShadow"/>
<feBlend mode="normal" in="SourceGraphic" in2="effect1_dropShadow" result="shape"/>
</filter>
</defs>
</svg>
