<svg width="222" height="274" viewBox="0 0 222 274" fill="none" xmlns="http://www.w3.org/2000/svg">
<g opacity="0.1" filter="url(#filter0_d)">
<path d="M5.93994 253.16H32.5799C39.2399 253.16 42.5699 249.83 42.5699 243.17V23.3899C42.5699 19.9366 41.7066 17.4699 39.9799 15.9899C38.4999 14.2633 36.0333 13.3999 32.5799 13.3999H5.93994V1.55994H212.4L213.88 94.0599H204.63C204.63 89.1266 203.52 80.7399 201.3 68.8999C199.327 57.0599 195.257 46.4533 189.09 37.0799C178.73 21.2933 164.177 13.3999 145.43 13.3999H86.5999C83.1466 13.3999 80.5566 14.2633 78.8299 15.9899C77.3499 17.4699 76.6099 19.9366 76.6099 23.3899V122.92H105.1C117.68 122.92 126.683 116.507 132.11 103.68C137.783 90.8533 140.62 77.1633 140.62 62.6099H150.24V195.07H140.62C140.62 180.517 137.783 166.827 132.11 154C126.683 141.173 117.68 134.76 105.1 134.76H76.6099V243.17C76.6099 249.83 79.9399 253.16 86.5999 253.16H145.8C152.953 253.16 160.23 251.557 167.63 248.35C175.03 245.143 181.32 240.21 186.5 233.55C191.433 226.643 195.503 218.01 198.71 207.65C201.917 197.29 204.137 187.917 205.37 179.53C206.603 170.897 207.343 165.347 207.59 162.88H216.84L212.4 265H5.93994V253.16Z" fill="#1987CC"/>
<path d="M5.93994 252.66H5.43994V253.16V265V265.5H5.93994H212.4H212.879L212.899 265.022L217.339 162.902L217.362 162.38H216.84H207.59H207.137L207.092 162.83C206.847 165.284 206.109 170.823 204.875 179.459C203.646 187.814 201.433 197.161 198.232 207.502C195.039 217.82 190.991 226.399 186.099 233.251C180.969 239.844 174.748 244.721 167.431 247.891C160.086 251.074 152.877 252.66 145.8 252.66H86.5999C83.347 252.66 80.9992 251.847 79.461 250.309C77.9228 248.771 77.1099 246.423 77.1099 243.17V135.26H105.1C111.301 135.26 116.592 136.839 120.997 139.977C125.406 143.118 128.963 147.845 131.649 154.195L131.653 154.202C137.297 166.963 140.12 180.584 140.12 195.07V195.57H140.62H150.24H150.74V195.07V62.6099V62.1099H150.24H140.62H140.12V62.6099C140.12 77.0963 137.297 90.7171 131.653 103.478L131.653 103.478L131.649 103.485C128.963 109.835 125.406 114.562 120.997 117.703C116.592 120.841 111.301 122.42 105.1 122.42H77.1099V23.3899C77.1099 19.9873 77.8425 17.6844 79.1835 16.3435C80.7833 14.7437 83.2237 13.8999 86.5999 13.8999H145.43C164.007 13.8999 178.404 21.7072 188.672 37.3543L188.672 37.3547C194.798 46.6658 198.844 57.206 200.807 68.9821L200.809 68.9921C203.029 80.8327 204.13 89.1781 204.13 94.0599V94.5599H204.63H213.88H214.388L214.38 94.0519L212.9 1.55194L212.892 1.05994H212.4H5.93994H5.43994V1.55994V13.3999V13.8999H5.93994H32.5799C35.9636 13.8999 38.2557 14.7466 39.6003 16.3153L39.6254 16.3445L39.6546 16.3696C41.2233 17.7142 42.0699 20.0063 42.0699 23.3899V243.17C42.0699 246.423 41.2571 248.771 39.7189 250.309C38.1807 251.847 35.8329 252.66 32.5799 252.66H5.93994Z" stroke="black"/>
</g>
<defs>
<filter id="filter0_d" x="0.939941" y="0.559937" width="220.944" height="273.44" filterUnits="userSpaceOnUse" color-interpolation-filters="sRGB">
<feFlood flood-opacity="0" result="BackgroundImageFix"/>
<feColorMatrix in="SourceAlpha" type="matrix" values="0 0 0 0 0 0 0 0 0 0 0 0 0 0 0 0 0 0 127 0"/>
<feOffset dy="4"/>
<feGaussianBlur stdDeviation="2"/>
<feColorMatrix type="matrix" values="0 0 0 0 0 0 0 0 0 0 0 0 0 0 0 0 0 0 0.25 0"/>
<feBlend mode="normal" in2="BackgroundImageFix" result="effect1_dropShadow"/>
<feBlend mode="normal" in="SourceGraphic" in2="effect1_dropShadow" result="shape"/>
</filter>
</defs>
</svg>
