<svg width="219" height="274" viewBox="0 0 219 274" fill="none" xmlns="http://www.w3.org/2000/svg">
<g opacity="0.1" filter="url(#filter0_d)">
<path d="M5.93994 253.16H32.5799C39.2399 253.16 42.5699 249.83 42.5699 243.17V23.3899C42.5699 19.9366 41.7066 17.4699 39.9799 15.9899C38.4999 14.2633 36.0333 13.3999 32.5799 13.3999H5.93994V1.55994H212.4L213.88 94.0599H204.63C204.63 89.1266 203.52 80.7399 201.3 68.8999C199.327 57.0599 195.257 46.4533 189.09 37.0799C178.73 21.2933 164.177 13.3999 145.43 13.3999H86.5999C83.1466 13.3999 80.5566 14.2633 78.8299 15.9899C77.3499 17.4699 76.6099 19.9366 76.6099 23.3899V122.92H105.1C117.68 122.92 126.683 116.26 132.11 102.94C137.783 89.3733 140.62 75.1899 140.62 60.3899H150.24V197.29H140.62C140.62 182.49 137.783 168.43 132.11 155.11C126.683 141.543 117.68 134.76 105.1 134.76H76.6099V240.95C76.6099 244.65 77.3499 247.61 78.8299 249.83C80.5566 252.05 83.1466 253.16 86.5999 253.16H119.16V265H5.93994V253.16Z" fill="#1987CC"/>
<path d="M5.93994 252.66H5.43994V253.16V265V265.5H5.93994H119.16H119.66V265V253.16V252.66H119.16H86.5999C83.2696 252.66 80.8461 251.598 79.2357 249.537C77.8346 247.427 77.1099 244.579 77.1099 240.95V135.26H105.1C111.295 135.26 116.582 136.928 120.987 140.247C125.397 143.569 128.956 148.572 131.646 155.296L131.646 155.296L131.65 155.306C137.296 168.563 140.12 182.556 140.12 197.29V197.79H140.62H150.24H150.74V197.29V60.3899V59.8899H150.24H140.62H140.12V60.3899C140.12 75.1241 137.296 89.2419 131.649 102.747L131.647 102.751C128.958 109.35 125.4 114.261 120.99 117.523C116.585 120.782 111.297 122.42 105.1 122.42H77.1099V23.3899C77.1099 19.9873 77.8425 17.6844 79.1835 16.3435C80.7833 14.7437 83.2237 13.8999 86.5999 13.8999H145.43C164.007 13.8999 178.404 21.7072 188.672 37.3543L188.672 37.3547C194.798 46.6658 198.844 57.206 200.807 68.9821L200.809 68.9921C203.029 80.8327 204.13 89.1781 204.13 94.0599V94.5599H204.63H213.88H214.388L214.38 94.0519L212.9 1.55194L212.892 1.05994H212.4H5.93994H5.43994V1.55994V13.3999V13.8999H5.93994H32.5799C35.9636 13.8999 38.2557 14.7466 39.6003 16.3153L39.6254 16.3445L39.6546 16.3696C41.2233 17.7142 42.0699 20.0063 42.0699 23.3899V243.17C42.0699 246.423 41.2571 248.771 39.7189 250.309C38.1807 251.847 35.8329 252.66 32.5799 252.66H5.93994Z" stroke="black"/>
</g>
<defs>
<filter id="filter0_d" x="0.939941" y="0.559937" width="217.956" height="273.44" filterUnits="userSpaceOnUse" color-interpolation-filters="sRGB">
<feFlood flood-opacity="0" result="BackgroundImageFix"/>
<feColorMatrix in="SourceAlpha" type="matrix" values="0 0 0 0 0 0 0 0 0 0 0 0 0 0 0 0 0 0 127 0"/>
<feOffset dy="4"/>
<feGaussianBlur stdDeviation="2"/>
<feColorMatrix type="matrix" values="0 0 0 0 0 0 0 0 0 0 0 0 0 0 0 0 0 0 0.25 0"/>
<feBlend mode="normal" in2="BackgroundImageFix" result="effect1_dropShadow"/>
<feBlend mode="normal" in="SourceGraphic" in2="effect1_dropShadow" result="shape"/>
</filter>
</defs>
</svg>
