<?xml version="1.0" encoding="utf-8"?>
<!-- Generator: Adobe Illustrator 24.0.2, SVG Export Plug-In . SVG Version: 6.00 Build 0)  -->
<svg version="1.1" id="Слой_1" xmlns="http://www.w3.org/2000/svg" xmlns:xlink="http://www.w3.org/1999/xlink" x="0px" y="0px"
	 viewBox="0 0 240 287" style="enable-background:new 0 0 240 287;" xml:space="preserve">
<style type="text/css">
	.st0{opacity:0.1;}
	.st1{fill:#1987CC;}
	.st2{fill:none;stroke:#000000;}
</style>
<g class="st0">
	<path class="st1" d="M108.6,277.8c-21.2,0-39.7-6.2-55.5-18.5c-15.5-12.6-27.5-29.5-35.9-50.7C9.1,187.1,5,163.3,5,137.2
		c0-24.9,4.2-47.7,12.6-68.5C26,48,37.9,31.6,53.5,19.5C69,7.2,87.1,1,107.9,1c10.9,0,21.1,2.5,30.7,7.4
		c9.6,4.9,17.5,10.2,23.7,15.9c5.9,5.4,9.9,8.1,11.8,8.1c2,0,3.3-0.6,4.1-1.9c1-1.2,2-3.2,3-5.9l7-20.7h9.3l1.5,114.7h-10.4
		c-5.4-23.4-12.5-43-21.1-58.8c-8.6-16-18.1-27.9-28.5-35.5c-10.1-7.6-20.2-11.5-30.3-11.5c-17,0-30.2,5.2-39.6,15.5
		c-9.4,10.1-15.9,24.3-19.6,42.6c-3.5,18.3-5.2,41.1-5.2,68.5s1.7,50.2,5.2,68.4c3.7,18.3,10.2,32.6,19.6,42.9
		c9.4,10.1,22.6,15.2,39.6,15.2c9.1,0,17.9-3.2,26.3-9.6c8.4-6.7,15.2-15,20.4-25.2c5.4-10.1,8.1-20.1,8.1-30v-33.3
		c0-3.5-0.9-5.9-2.6-7.4c-1.5-1.7-3.9-2.6-7.4-2.6h-41.1V146h122.1v11.8h-27c-3.5,0-6,0.9-7.8,2.6c-1.5,1.5-2.2,3.9-2.2,7.4v108
		h-11.8v-33.7c0-4.2-0.5-7.3-1.5-9.3c-1-2.2-2.6-3.3-4.8-3.3c-2.7,0-5.1,1-7,3c-2,2-3.9,4.7-5.9,8.1c-5.7,9.1-13.7,17.6-24.1,25.5
		C131.9,273.9,120.7,277.8,108.6,277.8z"/>
	<path class="st2" d="M52.8,259.6L52.8,259.6c15.9,12.4,34.5,18.6,55.8,18.6c12.2,0,23.5-3.9,34-11.6l0,0
		c10.4-7.9,18.5-16.5,24.2-25.7l0,0l0,0c2-3.4,3.9-6.1,5.8-8c1.9-1.9,4.1-2.8,6.7-2.8c1,0,1.9,0.3,2.6,0.7c0.7,0.5,1.3,1.2,1.8,2.3
		l0,0l0,0c0.9,1.9,1.4,4.9,1.4,9v33.7v0.5h0.5h11.8h0.5v-0.5v-108c0-3.4,0.7-5.7,2.1-7c1.6-1.6,4-2.4,7.4-2.4h27h0.5v-0.5V146v-0.5
		h-0.5H112.3h-0.5v0.5v11.8v0.5h0.5h41.1c3.4,0,5.7,0.8,7,2.4l0,0l0,0c1.6,1.3,2.4,3.6,2.4,7v33.3c0,9.8-2.7,19.7-8.1,29.7l0,0
		c-5.1,10.1-11.9,18.4-20.2,25c-8.3,6.4-17,9.5-26,9.5c-16.9,0-30-5-39.2-15c-9.3-10.3-15.8-24.5-19.5-42.7
		c-3.4-18.2-5.2-41-5.2-68.4s1.7-50.1,5.2-68.4c3.7-18.2,10.2-32.3,19.5-42.3l0,0c9.3-10.2,22.3-15.4,39.2-15.4c10,0,20,3.8,30,11.4
		l0,0c10.3,7.6,19.7,19.4,28.3,35.4l0,0c8.6,15.7,15.6,35.3,21,58.7l0.1,0.4h0.4h10.4h0.5l0-0.5L197.9,4l0-0.5h-0.5h-9.3h-0.4
		l-0.1,0.3l-7,20.7c0,0,0,0,0,0c-1,2.7-1.9,4.6-2.9,5.8l0,0l0,0c-0.6,1-1.8,1.6-3.6,1.6c-0.4,0-0.9-0.1-1.6-0.5
		c-0.7-0.3-1.5-0.8-2.5-1.5c-1.9-1.3-4.4-3.4-7.3-6.1c-6.2-5.7-14.1-11-23.8-16c-9.7-5-20-7.5-30.9-7.5C87,0.5,68.8,6.7,53.2,19.1
		c-15.6,12.1-27.6,28.6-36,49.4C8.7,89.3,4.5,112.2,4.5,137.2c0,26.2,4.1,50.1,12.2,71.6l0,0C25.2,230,37.2,247,52.8,259.6z"/>
</g>
</svg>
