<svg width="241" height="288" viewBox="0 0 241 288" fill="none" xmlns="http://www.w3.org/2000/svg">
<g opacity="0.1" filter="url(#filter0_d)">
<path d="M109.5 278.66C88.2866 278.66 69.7866 272.493 53.9999 260.16C38.4599 247.58 26.4966 230.683 18.1099 209.47C9.9699 188.01 5.8999 164.207 5.8999 138.06C5.8999 113.147 10.0932 90.33 18.4799 69.61C26.8666 48.89 38.8299 32.4867 54.3699 20.4C69.9099 8.06669 88.0399 1.90002 108.76 1.90002C119.613 1.90002 129.85 4.36669 139.47 9.30002C149.09 14.2333 156.983 19.5367 163.15 25.21C169.07 30.6367 173.017 33.35 174.99 33.35C176.963 33.35 178.32 32.7334 179.06 31.5C180.047 30.2667 181.033 28.2934 182.02 25.58L189.05 4.86001H198.3L199.78 119.56H189.42C183.993 96.1267 176.963 76.5167 168.33 60.73C159.697 44.6967 150.2 32.8567 139.84 25.21C129.727 17.5634 119.613 13.74 109.5 13.74C92.4799 13.74 79.2832 18.92 69.9099 29.28C60.5366 39.3934 53.9999 53.5767 50.2999 71.83C46.8466 90.0834 45.1199 112.9 45.1199 140.28C45.1199 167.66 46.8466 190.477 50.2999 208.73C53.9999 226.983 60.5366 241.29 69.9099 251.65C79.2832 261.763 92.4799 266.82 109.5 266.82C118.627 266.82 127.383 263.613 135.77 257.2C144.157 250.54 150.94 242.153 156.12 232.04C161.547 221.927 164.26 211.937 164.26 202.07V168.77C164.26 165.317 163.397 162.85 161.67 161.37C160.19 159.643 157.723 158.78 154.27 158.78H113.2V146.94H235.3V158.78H208.29C204.837 158.78 202.247 159.643 200.52 161.37C199.04 162.85 198.3 165.317 198.3 168.77V276.81H186.46V243.14C186.46 238.947 185.967 235.863 184.98 233.89C183.993 231.67 182.39 230.56 180.17 230.56C177.457 230.56 175.113 231.547 173.14 233.52C171.167 235.493 169.193 238.207 167.22 241.66C161.547 250.787 153.53 259.297 143.17 267.19C132.81 274.837 121.587 278.66 109.5 278.66Z" fill="#1987CC"/>
<path d="M199.28 119.56H189.42C183.993 96.1267 176.963 76.5167 168.33 60.73C159.697 44.6967 150.2 32.8567 139.84 25.21C129.727 17.5634 119.613 13.74 109.5 13.74C92.4799 13.74 79.2832 18.92 69.9099 29.28L199.28 119.56ZM199.28 119.56L199.28 119.566L199.78 119.56V119.06H199.773L198.3 4.86001H189.05L199.28 119.56ZM53.6853 260.549L53.6921 260.554C69.5721 272.96 88.1821 279.16 109.5 279.16C121.701 279.16 133.027 275.298 143.467 267.592L143.473 267.588C153.871 259.665 161.933 251.112 167.645 241.924L167.649 241.916L167.654 241.908C169.614 238.478 171.562 235.805 173.493 233.874C175.376 231.991 177.593 231.06 180.17 231.06C181.193 231.06 182.046 231.314 182.753 231.804C183.463 232.295 184.058 233.046 184.523 234.093L184.528 234.103L184.533 234.114C185.466 235.98 185.96 238.966 185.96 243.14V276.81V277.31H186.46H198.3H198.8V276.81V168.77C198.8 165.367 199.533 163.065 200.873 161.724C202.473 160.124 204.914 159.28 208.29 159.28H235.3H235.8V158.78V146.94V146.44H235.3H113.2H112.7V146.94V158.78V159.28H113.2H154.27C157.654 159.28 159.946 160.127 161.29 161.695L161.315 161.725L161.345 161.75C162.913 163.094 163.76 165.386 163.76 168.77V202.07C163.76 211.842 161.073 221.751 155.679 231.804L155.675 231.812C150.526 241.864 143.788 250.193 135.463 256.805C127.15 263.161 118.499 266.32 109.5 266.32C92.585 266.32 79.5352 261.299 70.278 251.312C60.9837 241.038 54.4782 226.824 50.7906 208.634C47.3455 190.422 45.6199 167.64 45.6199 140.28C45.6199 112.92 47.3455 90.1376 50.7906 71.9262C54.4786 53.7338 60.9845 39.6456 70.2766 29.6199L70.2807 29.6155C79.5389 19.3827 92.5878 14.24 109.5 14.24C119.479 14.24 129.489 18.0109 139.538 25.6089L139.543 25.6123C149.824 33.2009 159.278 44.9736 167.89 60.9671L167.891 60.9699C176.497 76.7058 183.513 96.27 188.933 119.673L189.022 120.06H189.42H199.78H200.286L200.28 119.554L198.8 4.85356L198.794 4.36001H198.3H189.05H188.692L188.576 4.69936L181.55 25.4092C181.549 25.411 181.549 25.4128 181.548 25.4146C180.568 28.1089 179.604 30.0193 178.669 31.1877L178.648 31.2139L178.631 31.2428C178.014 32.2719 176.861 32.85 174.99 32.85C174.6 32.85 174.06 32.713 173.348 32.3867C172.643 32.0637 171.806 31.5719 170.833 30.903C168.888 29.5655 166.441 27.5483 163.488 24.842C157.281 19.1309 149.347 13.8034 139.698 8.85511C130.007 3.88543 119.692 1.40002 108.76 1.40002C87.9333 1.40002 69.6931 7.60109 54.061 20.0069C38.4434 32.1544 26.4312 48.6329 18.0164 69.4224C9.60302 90.2085 5.3999 113.09 5.3999 138.06C5.3999 164.259 9.47814 188.123 17.6424 209.647L17.6449 209.654C26.0587 230.936 38.0694 247.907 53.6853 260.549Z" stroke="black"/>
</g>
<defs>
<filter id="filter0_d" x="0.899902" y="0.900024" width="239.4" height="286.76" filterUnits="userSpaceOnUse" color-interpolation-filters="sRGB">
<feFlood flood-opacity="0" result="BackgroundImageFix"/>
<feColorMatrix in="SourceAlpha" type="matrix" values="0 0 0 0 0 0 0 0 0 0 0 0 0 0 0 0 0 0 127 0"/>
<feOffset dy="4"/>
<feGaussianBlur stdDeviation="2"/>
<feColorMatrix type="matrix" values="0 0 0 0 0 0 0 0 0 0 0 0 0 0 0 0 0 0 0.25 0"/>
<feBlend mode="normal" in2="BackgroundImageFix" result="effect1_dropShadow"/>
<feBlend mode="normal" in="SourceGraphic" in2="effect1_dropShadow" result="shape"/>
</filter>
</defs>
</svg>
