<svg width="265" height="274" viewBox="0 0 265 274" fill="none" xmlns="http://www.w3.org/2000/svg">
<g opacity="0.1" filter="url(#filter0_d)">
<path d="M5.93994 253.16H32.5799C39.2399 253.16 42.5699 249.83 42.5699 243.17V23.3899C42.5699 16.7299 39.2399 13.3999 32.5799 13.3999H5.93994V1.55994H113.24V13.3999H86.5999C79.9399 13.3999 76.6099 16.7299 76.6099 23.3899V120.7H188.35V23.3899C188.35 16.7299 185.02 13.3999 178.36 13.3999H151.72V1.55994H259.02V13.3999H232.38C225.72 13.3999 222.39 16.7299 222.39 23.3899V243.17C222.39 249.83 225.72 253.16 232.38 253.16H259.02V265H151.72V253.16H178.36C185.02 253.16 188.35 249.83 188.35 243.17V132.54H76.6099V243.17C76.6099 249.83 79.9399 253.16 86.5999 253.16H113.24V265H5.93994V253.16Z" fill="#1987CC"/>
<path d="M5.93994 252.66H5.43994V253.16V265V265.5H5.93994H113.24H113.74V265V253.16V252.66H113.24H86.5999C83.347 252.66 80.9992 251.847 79.461 250.309C77.9228 248.771 77.1099 246.423 77.1099 243.17V133.04H187.85V243.17C187.85 246.423 187.037 248.771 185.499 250.309C183.961 251.847 181.613 252.66 178.36 252.66H151.72H151.22V253.16V265V265.5H151.72H259.02H259.52V265V253.16V252.66H259.02H232.38C229.127 252.66 226.779 251.847 225.241 250.309C223.703 248.771 222.89 246.423 222.89 243.17V23.3899C222.89 20.137 223.703 17.7891 225.241 16.251C226.779 14.7128 229.127 13.8999 232.38 13.8999H259.02H259.52V13.3999V1.55994V1.05994H259.02H151.72H151.22V1.55994V13.3999V13.8999H151.72H178.36C181.613 13.8999 183.961 14.7128 185.499 16.251C187.037 17.7891 187.85 20.137 187.85 23.3899V120.2H77.1099V23.3899C77.1099 20.137 77.9228 17.7891 79.461 16.251C80.9992 14.7128 83.347 13.8999 86.5999 13.8999H113.24H113.74V13.3999V1.55994V1.05994H113.24H5.93994H5.43994V1.55994V13.3999V13.8999H5.93994H32.5799C35.8329 13.8999 38.1807 14.7128 39.7189 16.251C41.2571 17.7891 42.0699 20.137 42.0699 23.3899V243.17C42.0699 246.423 41.2571 248.771 39.7189 250.309C38.1807 251.847 35.8329 252.66 32.5799 252.66H5.93994Z" stroke="black"/>
</g>
<defs>
<filter id="filter0_d" x="0.939941" y="0.559937" width="263.08" height="273.44" filterUnits="userSpaceOnUse" color-interpolation-filters="sRGB">
<feFlood flood-opacity="0" result="BackgroundImageFix"/>
<feColorMatrix in="SourceAlpha" type="matrix" values="0 0 0 0 0 0 0 0 0 0 0 0 0 0 0 0 0 0 127 0"/>
<feOffset dy="4"/>
<feGaussianBlur stdDeviation="2"/>
<feColorMatrix type="matrix" values="0 0 0 0 0 0 0 0 0 0 0 0 0 0 0 0 0 0 0.25 0"/>
<feBlend mode="normal" in2="BackgroundImageFix" result="effect1_dropShadow"/>
<feBlend mode="normal" in="SourceGraphic" in2="effect1_dropShadow" result="shape"/>
</filter>
</defs>
</svg>
