<svg width="119" height="274" viewBox="0 0 119 274" fill="none" xmlns="http://www.w3.org/2000/svg">
<g opacity="0.1" filter="url(#filter0_d)">
<path d="M5.93994 253.16H32.5799C39.2399 253.16 42.5699 249.83 42.5699 243.17V23.3899C42.5699 19.9366 41.7066 17.4699 39.9799 15.9899C38.4999 14.2633 36.0333 13.3999 32.5799 13.3999H5.93994V1.55994H113.24V13.3999H86.5999C83.1466 13.3999 80.5566 14.2633 78.8299 15.9899C77.3499 17.4699 76.6099 19.9366 76.6099 23.3899V243.17C76.6099 249.83 79.9399 253.16 86.5999 253.16H113.24V265H5.93994V253.16Z" fill="#1987CC"/>
<path d="M5.93994 252.66H5.43994V253.16V265V265.5H5.93994H113.24H113.74V265V253.16V252.66H113.24H86.5999C83.347 252.66 80.9992 251.847 79.461 250.309C77.9228 248.771 77.1099 246.423 77.1099 243.17V23.3899C77.1099 19.9873 77.8425 17.6844 79.1835 16.3435C80.7833 14.7437 83.2237 13.8999 86.5999 13.8999H113.24H113.74V13.3999V1.55994V1.05994H113.24H5.93994H5.43994V1.55994V13.3999V13.8999H5.93994H32.5799C35.9636 13.8999 38.2557 14.7466 39.6003 16.3153L39.6254 16.3445L39.6546 16.3696C41.2233 17.7142 42.0699 20.0063 42.0699 23.3899V243.17C42.0699 246.423 41.2571 248.771 39.7189 250.309C38.1807 251.847 35.8329 252.66 32.5799 252.66H5.93994Z" stroke="black"/>
</g>
<defs>
<filter id="filter0_d" x="0.939941" y="0.559937" width="117.3" height="273.44" filterUnits="userSpaceOnUse" color-interpolation-filters="sRGB">
<feFlood flood-opacity="0" result="BackgroundImageFix"/>
<feColorMatrix in="SourceAlpha" type="matrix" values="0 0 0 0 0 0 0 0 0 0 0 0 0 0 0 0 0 0 127 0"/>
<feOffset dy="4"/>
<feGaussianBlur stdDeviation="2"/>
<feColorMatrix type="matrix" values="0 0 0 0 0 0 0 0 0 0 0 0 0 0 0 0 0 0 0.25 0"/>
<feBlend mode="normal" in2="BackgroundImageFix" result="effect1_dropShadow"/>
<feBlend mode="normal" in="SourceGraphic" in2="effect1_dropShadow" result="shape"/>
</filter>
</defs>
</svg>
