<svg width="182" height="281" viewBox="0 0 182 281" fill="none" xmlns="http://www.w3.org/2000/svg">
<g opacity="0.1" filter="url(#filter0_d)">
<path d="M68.18 271.66C49.9267 271.66 34.88 266.973 23.04 257.6C11.2 248.227 5.28003 235.277 5.28003 218.75C5.28003 211.35 6.88336 205.06 10.09 199.88C13.2967 194.7 17.2434 190.877 21.93 188.41C26.8634 185.697 31.55 184.34 35.99 184.34C43.1434 184.34 48.4467 186.19 51.9 189.89C55.3534 193.343 57.08 197.66 57.08 202.84C57.08 208.02 55.6 212.09 52.64 215.05C49.9267 217.763 45.4867 220.107 39.32 222.08C35.1267 223.313 32.0434 224.793 30.07 226.52C28.3434 228.247 27.48 230.96 27.48 234.66C27.48 242.307 31.4267 248.473 39.32 253.16C47.2134 257.6 56.8334 259.82 68.18 259.82C80.2667 259.82 89.64 255.133 96.3 245.76C102.96 236.387 106.29 225.163 106.29 212.09V23.3899C106.29 19.9366 105.427 17.4699 103.7 15.9899C102.22 14.2633 99.7534 13.3999 96.3 13.3999H69.66V1.55994H176.96V13.3999H150.32C146.867 13.3999 144.277 14.2633 142.55 15.9899C141.07 17.4699 140.33 19.9366 140.33 23.3899V193.22C140.33 209.5 137 223.56 130.34 235.4C123.68 247.24 114.8 256.243 103.7 262.41C92.8467 268.577 81.0067 271.66 68.18 271.66Z" fill="#1987CC"/>
<path d="M39.4611 222.56L39.4612 222.56L39.4724 222.556C45.6694 220.573 50.1977 218.199 52.9936 215.403C56.0686 212.329 57.58 208.119 57.58 202.84C57.58 197.539 55.8089 193.095 52.2598 189.543C48.6781 185.709 43.2195 183.84 35.99 183.84C31.4473 183.84 26.6794 185.228 21.693 187.97C16.918 190.484 12.9104 194.374 9.6649 199.617C6.39972 204.891 4.78003 211.277 4.78003 218.75C4.78003 235.413 10.7575 248.514 22.7297 257.992C34.6753 267.449 49.8383 272.16 68.18 272.16C81.09 272.16 93.0146 269.056 103.945 262.846C115.13 256.631 124.074 247.559 130.776 235.645C137.486 223.717 140.83 209.569 140.83 193.22V23.3899C140.83 19.9873 141.563 17.6844 142.904 16.3435C144.503 14.7437 146.944 13.8999 150.32 13.8999H176.96H177.46V13.3999V1.55994V1.05994H176.96H69.66H69.16V1.55994V13.3999V13.8999H69.66H96.3C99.6837 13.8999 101.976 14.7466 103.32 16.3153L103.345 16.3445L103.375 16.3696C104.943 17.7142 105.79 20.0063 105.79 23.3899V212.09C105.79 225.074 102.484 236.193 95.8924 245.47C89.3317 254.704 80.1146 259.32 68.18 259.32C56.9003 259.32 47.3711 257.114 39.5702 252.727C31.7963 248.11 27.98 242.091 27.98 234.66C27.98 231.034 28.8253 228.48 30.4119 226.885C32.3068 225.232 35.3061 223.782 39.4611 222.56Z" stroke="black"/>
</g>
<defs>
<filter id="filter0_d" x="0.280029" y="0.559937" width="181.68" height="280.1" filterUnits="userSpaceOnUse" color-interpolation-filters="sRGB">
<feFlood flood-opacity="0" result="BackgroundImageFix"/>
<feColorMatrix in="SourceAlpha" type="matrix" values="0 0 0 0 0 0 0 0 0 0 0 0 0 0 0 0 0 0 127 0"/>
<feOffset dy="4"/>
<feGaussianBlur stdDeviation="2"/>
<feColorMatrix type="matrix" values="0 0 0 0 0 0 0 0 0 0 0 0 0 0 0 0 0 0 0.25 0"/>
<feBlend mode="normal" in2="BackgroundImageFix" result="effect1_dropShadow"/>
<feBlend mode="normal" in="SourceGraphic" in2="effect1_dropShadow" result="shape"/>
</filter>
</defs>
</svg>
