<svg width="253" height="274" viewBox="0 0 253 274" fill="none" xmlns="http://www.w3.org/2000/svg">
<g opacity="0.1" filter="url(#filter0_d)">
<path d="M5.93994 253.16H32.5799C39.2399 253.16 42.5699 249.83 42.5699 243.17V23.3899C42.5699 19.9366 41.7066 17.4699 39.9799 15.9899C38.4999 14.2633 36.0333 13.3999 32.5799 13.3999H5.93994V1.55994H111.39V13.3999H86.5999C83.1466 13.3999 80.5566 14.2633 78.8299 15.9899C77.3499 17.4699 76.6099 19.9366 76.6099 23.3899V138.09L161.71 51.1399C164.917 47.6866 167.26 44.2333 168.74 40.7799C170.22 37.3266 170.96 33.3799 170.96 28.9399C170.96 24.4999 169.357 20.7999 166.15 17.8399C162.943 14.8799 158.997 13.3999 154.31 13.3999H144.32V1.55994H242V13.3999H227.2C219.06 13.3999 207.96 20.6766 193.9 35.2299L131.74 98.1299L207.22 236.88C210.427 243.047 214.003 247.363 217.95 249.83C221.897 252.05 227.57 253.16 234.97 253.16H247.18V265H135.44V253.16H160.23C162.943 253.16 165.287 252.42 167.26 250.94C169.233 249.213 170.22 247.363 170.22 245.39C170.22 243.91 169.973 242.307 169.48 240.58C168.987 238.607 168.37 237.127 167.63 236.14L107.32 122.92L76.6099 154V243.17C76.6099 249.83 79.9399 253.16 86.5999 253.16H111.39V265H5.93994V253.16Z" fill="#1987CC"/>
<path d="M5.93994 252.66H5.43994V253.16V265V265.5H5.93994H111.39H111.89V265V253.16V252.66H111.39H86.5999C83.347 252.66 80.9992 251.847 79.461 250.309C77.9228 248.771 77.1099 246.423 77.1099 243.17V154.205L107.198 123.755L167.189 236.375L167.207 236.409L167.23 236.44C167.912 237.35 168.509 238.756 168.995 240.701L168.997 240.709L168.999 240.717C169.482 242.408 169.72 243.965 169.72 245.39C169.72 247.171 168.838 248.89 166.945 250.551C165.07 251.952 162.84 252.66 160.23 252.66H135.44H134.94V253.16V265V265.5H135.44H247.18H247.68V265V253.16V252.66H247.18H234.97C227.614 252.66 222.043 251.555 218.205 249.4C214.366 246.997 210.845 242.768 207.664 236.649L207.659 236.641L132.357 98.2172L194.256 35.5814L194.26 35.5773C201.276 28.315 207.537 22.8859 213.044 19.2756C218.559 15.6602 223.271 13.8999 227.2 13.8999H242H242.5V13.3999V1.55994V1.05994H242H144.32H143.82V1.55994V13.3999V13.8999H144.32H154.31C158.881 13.8999 162.704 15.3392 165.811 18.2073C168.913 21.0708 170.46 24.6367 170.46 28.9399C170.46 33.3243 169.729 37.2021 168.28 40.583C166.829 43.9705 164.523 47.375 161.348 50.7949C161.347 50.7965 161.345 50.7981 161.344 50.7997L77.1099 136.864V23.3899C77.1099 19.9873 77.8425 17.6844 79.1835 16.3435C80.7833 14.7437 83.2237 13.8999 86.5999 13.8999H111.39H111.89V13.3999V1.55994V1.05994H111.39H5.93994H5.43994V1.55994V13.3999V13.8999H5.93994H32.5799C35.9636 13.8999 38.2557 14.7466 39.6003 16.3153L39.6254 16.3445L39.6546 16.3696C41.2233 17.7142 42.0699 20.0063 42.0699 23.3899V243.17C42.0699 246.423 41.2571 248.771 39.7189 250.309C38.1807 251.847 35.8329 252.66 32.5799 252.66H5.93994Z" stroke="black"/>
</g>
<defs>
<filter id="filter0_d" x="0.939941" y="0.559937" width="251.24" height="273.44" filterUnits="userSpaceOnUse" color-interpolation-filters="sRGB">
<feFlood flood-opacity="0" result="BackgroundImageFix"/>
<feColorMatrix in="SourceAlpha" type="matrix" values="0 0 0 0 0 0 0 0 0 0 0 0 0 0 0 0 0 0 127 0"/>
<feOffset dy="4"/>
<feGaussianBlur stdDeviation="2"/>
<feColorMatrix type="matrix" values="0 0 0 0 0 0 0 0 0 0 0 0 0 0 0 0 0 0 0.25 0"/>
<feBlend mode="normal" in2="BackgroundImageFix" result="effect1_dropShadow"/>
<feBlend mode="normal" in="SourceGraphic" in2="effect1_dropShadow" result="shape"/>
</filter>
</defs>
</svg>
