<?xml version="1.0" encoding="utf-8"?>
<!-- Generator: Adobe Illustrator 23.0.1, SVG Export Plug-In . SVG Version: 6.00 Build 0)  -->
<!DOCTYPE svg PUBLIC "-//W3C//DTD SVG 1.1//EN" "http://www.w3.org/Graphics/SVG/1.1/DTD/svg11.dtd" [
	<!ENTITY ns_extend "http://ns.adobe.com/Extensibility/1.0/">
	<!ENTITY ns_ai "http://ns.adobe.com/AdobeIllustrator/10.0/">
	<!ENTITY ns_graphs "http://ns.adobe.com/Graphs/1.0/">
	<!ENTITY ns_vars "http://ns.adobe.com/Variables/1.0/">
	<!ENTITY ns_imrep "http://ns.adobe.com/ImageReplacement/1.0/">
	<!ENTITY ns_sfw "http://ns.adobe.com/SaveForWeb/1.0/">
	<!ENTITY ns_custom "http://ns.adobe.com/GenericCustomNamespace/1.0/">
	<!ENTITY ns_adobe_xpath "http://ns.adobe.com/XPath/1.0/">
]>
<svg version="1.1" id="Layer_1" xmlns:x="&ns_extend;" xmlns:i="&ns_ai;" xmlns:graph="&ns_graphs;"
	 xmlns="http://www.w3.org/2000/svg" xmlns:xlink="http://www.w3.org/1999/xlink" x="0px" y="0px" viewBox="0 0 1113 706"
	 style="enable-background:new 0 0 1113 706;" xml:space="preserve">
<style type="text/css">
	.st0{opacity:0;fill:#FFFFFF;}
</style>
<metadata>
	<sfw  xmlns="&ns_sfw;">
		<slices></slices>
		<sliceSourceBounds  bottomLeftOrigin="true" height="706" width="1113" x="404" y="187"></sliceSourceBounds>
	</sfw>
</metadata>
<image style="overflow:visible;" width="1113" height="706" xlink:href="floor-7.png" >
</image>
<polygon class="st0" points="31,374.6 31,181.1 131.6,181.1 131.6,148.9 203.3,148.9 203.3,374.6 "/>
<polygon class="st0" points="31,536.5 29.7,385.3 220.4,385.3 220.4,313.1 356.8,313.1 356.8,563 219.4,563 219.4,537 "/>
<polygon class="st0" points="373.1,536.2 373.1,149.2 445.1,147.4 445.1,181.1 545.2,181.3 545.2,536.2 "/>
<polygon class="st0" points="562.8,536.2 562.6,181.3 661.9,181.3 661.9,148.4 735.7,147.4 735.7,537.8 "/>
<polygon class="st0" points="751.7,563 751.5,313.1 888.1,313.1 888.1,407 992.5,407.3 992.5,536.7 888.9,537.8 889.1,563 "/>
<polygon class="st0" points="1005,536.7 1004.8,396.6 904.7,396.6 904.9,147.9 977.2,147.9 978,180.6 1078.6,180.8 1078.6,536.7 "/>
</svg>
